# Blender 4.3.0
# www.blender.org
mtllib FemtoBoltCasing.mtl
o Cube
v 0.036719 -0.029420 0.020130
v 0.036719 -0.032250 0.018364
v 0.057500 -0.029420 0.018364
v 0.036719 -0.030833 0.019894
v 0.054974 -0.029420 0.019894
v 0.054868 -0.030774 0.019664
v 0.054974 -0.031872 0.018364
v 0.036719 -0.031872 0.019245
v 0.054868 -0.031505 0.019208
v 0.056826 -0.029420 0.019245
v 0.056826 -0.030833 0.018364
v 0.056171 -0.030774 0.019208
v 0.036719 -0.032250 -0.018364
v 0.036719 -0.029420 -0.020130
v 0.057500 -0.029420 -0.018364
v 0.036719 -0.031872 -0.019246
v 0.054974 -0.031872 -0.018364
v 0.054868 -0.031505 -0.019209
v 0.054974 -0.029420 -0.019894
v 0.036719 -0.030833 -0.019894
v 0.054868 -0.030774 -0.019665
v 0.056826 -0.030833 -0.018364
v 0.056826 -0.029420 -0.019246
v 0.056171 -0.030774 -0.019209
v 0.036719 0.029421 0.020130
v 0.057500 0.029421 0.018364
v 0.036719 0.032250 0.018364
v 0.054974 0.029421 0.019894
v 0.036719 0.030833 0.019894
v 0.054868 0.030774 0.019664
v 0.056826 0.030833 0.018364
v 0.056826 0.029421 0.019245
v 0.056171 0.030774 0.019208
v 0.036719 0.031872 0.019245
v 0.054974 0.031872 0.018364
v 0.054868 0.031505 0.019208
v 0.036719 0.029421 -0.020130
v 0.036719 0.032250 -0.018364
v 0.057500 0.029421 -0.018364
v 0.036719 0.030833 -0.019894
v 0.054974 0.029421 -0.019894
v 0.054868 0.030774 -0.019665
v 0.054974 0.031872 -0.018364
v 0.036719 0.031872 -0.019246
v 0.054868 0.031505 -0.019209
v 0.056826 0.029421 -0.019246
v 0.056826 0.030833 -0.018364
v 0.056171 0.030774 -0.019209
v -0.036719 -0.029420 0.020130
v -0.057500 -0.029420 0.018364
v -0.036719 -0.032250 0.018364
v -0.054974 -0.029420 0.019894
v -0.036719 -0.030833 0.019894
v -0.054868 -0.030774 0.019664
v -0.056826 -0.030833 0.018364
v -0.056826 -0.029420 0.019245
v -0.056171 -0.030774 0.019208
v -0.036719 -0.031872 0.019245
v -0.054974 -0.031872 0.018364
v -0.054868 -0.031505 0.019208
v -0.036719 -0.029420 -0.020130
v -0.036719 -0.032250 -0.018364
v -0.057500 -0.029420 -0.018364
v -0.036719 -0.030833 -0.019894
v -0.054974 -0.029420 -0.019894
v -0.054868 -0.030774 -0.019665
v -0.054974 -0.031872 -0.018364
v -0.036719 -0.031872 -0.019246
v -0.054868 -0.031505 -0.019209
v -0.056826 -0.029420 -0.019246
v -0.056826 -0.030833 -0.018364
v -0.056171 -0.030774 -0.019209
v -0.036719 0.029421 0.020130
v -0.036719 0.032250 0.018364
v -0.057500 0.029421 0.018364
v -0.036719 0.030833 0.019894
v -0.054974 0.029421 0.019894
v -0.054868 0.030774 0.019664
v -0.054974 0.031872 0.018364
v -0.036719 0.031872 0.019245
v -0.054868 0.031505 0.019208
v -0.056826 0.029421 0.019245
v -0.056826 0.030833 0.018364
v -0.056171 0.030774 0.019208
v -0.036719 0.029421 -0.020130
v -0.057500 0.029421 -0.018364
v -0.036719 0.032250 -0.018364
v -0.054974 0.029421 -0.019894
v -0.036719 0.030833 -0.019894
v -0.054868 0.030774 -0.019665
v -0.056826 0.030833 -0.018364
v -0.056826 0.029421 -0.019246
v -0.056171 0.030774 -0.019209
v -0.036719 0.031872 -0.019246
v -0.054974 0.031872 -0.018364
v -0.054868 0.031505 -0.019209
v 0.036719 -0.032250 -0.000000
v 0.054974 -0.031872 -0.000000
v 0.056826 -0.030833 -0.000000
v 0.057500 -0.029420 -0.000000
v 0.036719 0.032250 -0.000000
v 0.054974 0.031872 -0.000000
v 0.056826 0.030833 -0.000000
v 0.057500 0.029421 -0.000000
v -0.057500 0.029421 -0.000000
v -0.056826 0.030833 -0.000000
v -0.054974 0.031872 -0.000000
v -0.036719 0.032250 -0.000000
v -0.036719 -0.032250 -0.000000
v -0.054974 -0.031872 -0.000000
v -0.056826 -0.030833 -0.000000
v -0.057500 -0.029420 -0.000000
v 0.000000 0.029421 0.020130
v 0.000000 0.030833 0.019894
v 0.000000 0.031872 0.019245
v 0.000000 0.032250 0.018364
v -0.000000 0.029421 -0.020130
v -0.000000 0.030833 -0.019894
v -0.000000 0.031872 -0.019246
v -0.000000 0.032250 -0.018364
v 0.000000 -0.029420 0.020130
v 0.000000 -0.030833 0.019894
v 0.000000 -0.031872 0.019245
v 0.000000 -0.032250 0.018364
v -0.000000 -0.029420 -0.020130
v -0.000000 -0.030833 -0.019894
v -0.000000 -0.031872 -0.019246
v -0.000000 -0.032250 -0.018364
v -0.000000 0.032250 -0.000000
v -0.000000 -0.032250 -0.000000
vn 0.0065 -0.0830 0.9965
vn 0.0102 -0.9794 0.2017
vn 0.9298 -0.2052 0.3056
vn 0.0065 -0.3542 0.9351
vn 0.1756 -0.0881 0.9805
vn 0.1572 -0.3502 0.9234
vn 0.2577 -0.9445 0.2036
vn 0.0083 -0.7592 0.6508
vn 0.1962 -0.7499 0.6318
vn 0.5996 -0.1494 0.7863
vn 0.7211 -0.6406 0.2639
vn 0.4926 -0.5062 0.7079
vn 0.0102 -0.9794 -0.2017
vn 0.0065 -0.0830 -0.9965
vn 0.9298 -0.2052 -0.3056
vn 0.0083 -0.7592 -0.6508
vn 0.2577 -0.9445 -0.2036
vn 0.1962 -0.7499 -0.6318
vn 0.1756 -0.0881 -0.9805
vn 0.0064 -0.3542 -0.9352
vn 0.1572 -0.3502 -0.9234
vn 0.7211 -0.6406 -0.2639
vn 0.5996 -0.1494 -0.7862
vn 0.4926 -0.5062 -0.7079
vn 0.0065 0.0830 0.9965
vn 0.9298 0.2052 0.3056
vn 0.0102 0.9794 0.2017
vn 0.1756 0.0881 0.9805
vn 0.0065 0.3542 0.9352
vn 0.1572 0.3502 0.9234
vn 0.7211 0.6406 0.2639
vn 0.5996 0.1494 0.7863
vn 0.4926 0.5062 0.7079
vn 0.0083 0.7592 0.6508
vn 0.2577 0.9445 0.2036
vn 0.1962 0.7499 0.6318
vn 0.0065 0.0830 -0.9965
vn 0.0102 0.9794 -0.2017
vn 0.9298 0.2052 -0.3056
vn 0.0064 0.3542 -0.9352
vn 0.1756 0.0881 -0.9805
vn 0.1572 0.3502 -0.9234
vn 0.2577 0.9445 -0.2036
vn 0.0083 0.7592 -0.6508
vn 0.1962 0.7499 -0.6318
vn 0.5996 0.1494 -0.7862
vn 0.7211 0.6406 -0.2639
vn 0.4926 0.5062 -0.7079
vn -0.0065 -0.0830 0.9965
vn -0.9298 -0.2052 0.3056
vn -0.0102 -0.9794 0.2017
vn -0.1756 -0.0881 0.9805
vn -0.0064 -0.3542 0.9352
vn -0.1572 -0.3502 0.9234
vn -0.7211 -0.6406 0.2639
vn -0.5996 -0.1494 0.7862
vn -0.4926 -0.5062 0.7079
vn -0.0083 -0.7592 0.6508
vn -0.2577 -0.9445 0.2036
vn -0.1962 -0.7499 0.6318
vn -0.0065 -0.0830 -0.9965
vn -0.0102 -0.9794 -0.2017
vn -0.9298 -0.2052 -0.3056
vn -0.0064 -0.3542 -0.9352
vn -0.1756 -0.0881 -0.9805
vn -0.1572 -0.3502 -0.9234
vn -0.2577 -0.9445 -0.2036
vn -0.0083 -0.7592 -0.6508
vn -0.1962 -0.7499 -0.6318
vn -0.5996 -0.1494 -0.7862
vn -0.7211 -0.6406 -0.2638
vn -0.4926 -0.5062 -0.7079
vn -0.0065 0.0830 0.9965
vn -0.0102 0.9794 0.2017
vn -0.9298 0.2052 0.3056
vn -0.0064 0.3542 0.9351
vn -0.1756 0.0881 0.9805
vn -0.1572 0.3502 0.9234
vn -0.2577 0.9445 0.2036
vn -0.0083 0.7592 0.6508
vn -0.1962 0.7499 0.6318
vn -0.5996 0.1494 0.7862
vn -0.7211 0.6406 0.2639
vn -0.4926 0.5062 0.7079
vn -0.0065 0.0830 -0.9965
vn -0.9298 0.2052 -0.3056
vn -0.0102 0.9794 -0.2017
vn -0.1756 0.0881 -0.9805
vn -0.0064 0.3542 -0.9352
vn -0.1572 0.3502 -0.9234
vn -0.7211 0.6406 -0.2638
vn -0.5996 0.1494 -0.7862
vn -0.4926 0.5062 -0.7079
vn -0.0083 0.7592 -0.6508
vn -0.2577 0.9445 -0.2036
vn -0.1962 0.7499 -0.6318
vn 0.0103 -0.9999 -0.0000
vn 0.2628 -0.9648 -0.0000
vn 0.7301 -0.6834 -0.0000
vn 0.9753 -0.2207 -0.0000
vn 0.0103 0.9999 -0.0000
vn 0.2628 0.9648 -0.0000
vn 0.7301 0.6834 -0.0000
vn 0.9753 0.2207 -0.0000
vn -0.9753 0.2207 -0.0000
vn -0.7301 0.6834 -0.0000
vn -0.2628 0.9648 -0.0000
vn -0.0103 0.9999 -0.0000
vn -0.0103 -0.9999 -0.0000
vn -0.2628 -0.9648 -0.0000
vn -0.7301 -0.6834 -0.0000
vn -0.9753 -0.2207 -0.0000
vn -0.0000 0.0827 0.9966
vn -0.0000 0.3539 0.9353
vn -0.0000 0.7591 0.6510
vn -0.0000 0.9796 0.2011
vn -0.0000 0.0826 -0.9966
vn -0.0000 0.3539 -0.9353
vn -0.0000 0.7591 -0.6510
vn -0.0000 0.9796 -0.2011
vn -0.0000 -0.0827 0.9966
vn -0.0000 -0.3539 0.9353
vn -0.0000 -0.7591 0.6510
vn -0.0000 -0.9796 0.2011
vn -0.0000 -0.0826 -0.9966
vn -0.0000 -0.3539 -0.9353
vn -0.0000 -0.7591 -0.6510
vn -0.0000 -0.9796 -0.2011
vn -0.0000 1.0000 -0.0000
vn -0.0000 -1.0000 -0.0000
vt 0.519493 0.509113
vt 0.519493 0.724334
vt 0.220469 0.724334
vt 0.220469 0.509113
vt 0.500000 0.510967
vt 0.614033 0.510967
vt 0.614033 0.739033
vt 0.500000 0.739033
vt 0.750000 0.510967
vt 0.829823 0.510967
vt 0.829823 0.739033
vt 0.750000 0.739033
vt 0.500000 0.010967
vt 0.614033 0.010967
vt 0.614033 0.239033
vt 0.500000 0.239033
vt 0.500000 0.375000
vt 0.614033 0.375000
vt 0.614033 0.454823
vt 0.500000 0.454823
vt 0.170177 0.739033
vt 0.170177 0.744509
vt 0.130722 0.744278
vt 0.130491 0.739033
vt 0.170177 0.750000
vt 0.130722 0.750000
vt 0.385967 0.954823
vt 0.385967 1.000000
vt 0.375000 0.994278
vt 0.375000 0.954823
vt 0.385967 0.000000
vt 0.385967 0.005491
vt 0.375000 0.005722
vt 0.375000 0.000000
vt 0.385967 0.010967
vt 0.375000 0.010967
vt 0.125000 0.739033
vt 0.125000 0.744278
vt 0.614033 0.954823
vt 0.619509 0.954823
vt 0.619278 1.000000
vt 0.614033 1.000000
vt 0.625000 0.954823
vt 0.625000 1.000000
vt 0.875000 0.739033
vt 0.875000 0.744278
vt 0.829823 0.750000
vt 0.625000 0.010967
vt 0.619509 0.010967
vt 0.619278 0.005722
vt 0.625000 0.005722
vt 0.614033 0.005491
vt 0.614033 0.000000
vt 0.619278 0.000000
vt 0.170177 0.510967
vt 0.130491 0.510967
vt 0.130722 0.505722
vt 0.170177 0.505491
vt 0.125000 0.510967
vt 0.125000 0.505722
vt 0.385967 0.239033
vt 0.385967 0.244509
vt 0.375000 0.244278
vt 0.375000 0.239033
vt 0.385967 0.255491
vt 0.375000 0.255722
vt 0.385967 0.295177
vt 0.375000 0.295177
vt 0.170177 0.500000
vt 0.130722 0.500000
vt 0.829823 0.500000
vt 0.875000 0.505722
vt 0.875000 0.510967
vt 0.625000 0.295177
vt 0.619509 0.295177
vt 0.619278 0.255722
vt 0.625000 0.250000
vt 0.614033 0.295177
vt 0.614033 0.255491
vt 0.614033 0.244509
vt 0.619278 0.244278
vt 0.619509 0.239033
vt 0.625000 0.239033
vt 0.625000 0.244278
vt 0.619278 0.247112
vt 0.329823 0.739033
vt 0.369509 0.739033
vt 0.369278 0.744278
vt 0.329823 0.744509
vt 0.380491 0.739033
vt 0.380722 0.744278
vt 0.385967 0.739033
vt 0.385967 0.744509
vt 0.385967 0.755491
vt 0.375000 0.755722
vt 0.385967 0.795177
vt 0.375000 0.795177
vt 0.329823 0.750000
vt 0.369278 0.750000
vt 0.372112 0.744278
vt 0.670177 0.739033
vt 0.670177 0.750000
vt 0.630722 0.750000
vt 0.630491 0.739033
vt 0.625000 0.795177
vt 0.619509 0.795177
vt 0.619278 0.755722
vt 0.625000 0.755722
vt 0.614033 0.795177
vt 0.614033 0.755491
vt 0.614033 0.744509
vt 0.619278 0.744278
vt 0.619509 0.739033
vt 0.619278 0.752888
vt 0.329823 0.510967
vt 0.329823 0.505491
vt 0.369278 0.505722
vt 0.369509 0.510967
vt 0.329823 0.500000
vt 0.369278 0.500000
vt 0.385967 0.454823
vt 0.385967 0.494509
vt 0.375000 0.494278
vt 0.375000 0.454823
vt 0.385967 0.505491
vt 0.380722 0.505722
vt 0.385967 0.510967
vt 0.380491 0.510967
vt 0.372112 0.505722
vt 0.670177 0.510967
vt 0.630491 0.510967
vt 0.630722 0.500000
vt 0.670177 0.500000
vt 0.619509 0.510967
vt 0.619278 0.505722
vt 0.614033 0.505491
vt 0.614033 0.494509
vt 0.619278 0.494278
vt 0.619509 0.454823
vt 0.625000 0.454823
vt 0.625000 0.494278
vt 0.619278 0.497112
vt 0.059517 0.724334
vt 0.059517 0.509113
vt 0.500000 0.000000
vt 0.500000 0.005491
vt 0.500000 0.295177
vt 0.500000 0.255491
vt 0.500000 0.244509
vt 0.250000 0.510967
vt 0.250000 0.505491
vt 0.250000 0.500000
vt 0.375000 0.375000
vt 0.385967 0.375000
vt 0.750000 0.500000
vt 0.625000 0.375000
vt 0.619509 0.375000
vt 0.500000 0.505491
vt 0.500000 0.494509
vt 0.787207 0.509113
vt 0.787207 0.275461
vt 0.941233 0.275460
vt 0.941233 0.509113
vt 0.500000 0.755491
vt 0.500000 0.744509
vt 0.250000 0.739033
vt 0.250000 0.744509
vt 0.250000 0.750000
vt 0.375000 0.875000
vt 0.385967 0.875000
vt 0.750000 0.750000
vt 0.625000 0.875000
vt 0.619509 0.875000
vt 0.614033 0.875000
vt 0.787207 0.724334
vt 0.941233 0.724334
vt 0.220469 0.275461
vt 0.059517 0.275461
vt 0.519493 0.275461
s 1
usemtl FemtoBoltFront
f 130/1/130 128/2/128 13/3/13 97/4/97
f 97/4/97 13/3/13 17/143/17 98/144/98
f 109/160/109 51/161/51 59/162/59 110/163/110
f 62/175/62 109/160/109 110/163/110 67/176/67
f 2/177/2 97/4/97 98/144/98 7/178/7
f 124/179/124 130/1/130 97/4/97 2/177/2
f 51/161/51 109/160/109 130/1/130 124/179/124
f 109/160/109 62/175/62 128/2/128 130/1/130
usemtl FemtoBoltOuter
f 105/5/105 86/6/86 63/7/63 112/8/112
f 117/9/117 37/10/37 14/11/14 125/12/125
f 100/13/100 15/14/15 39/15/39 104/16/104
f 129/17/129 120/18/120 87/19/87 108/20/108
f 1/21/1 4/22/4 6/23/6 5/24/5
f 4/22/4 8/25/8 9/26/9 6/23/6
f 2/27/2 7/28/7 9/29/9 8/30/8
f 7/31/7 11/32/11 12/33/12 9/34/9
f 3/35/3 10/36/10 12/33/12 11/32/11
f 10/37/10 5/24/5 6/23/6 12/38/12
f 6/23/6 9/26/9 12/38/12
f 13/39/13 16/40/16 18/41/18 17/42/17
f 16/40/16 20/43/20 21/44/21 18/41/18
f 14/11/14 19/45/19 21/46/21 20/47/20
f 19/48/19 23/49/23 24/50/24 21/51/21
f 15/14/15 22/52/22 24/50/24 23/49/23
f 22/52/22 17/53/17 18/54/18 24/50/24
f 18/54/18 21/51/21 24/50/24
f 25/55/25 28/56/28 30/57/30 29/58/29
f 28/56/28 32/59/32 33/60/33 30/57/30
f 26/61/26 31/62/31 33/63/33 32/64/32
f 31/62/31 35/65/35 36/66/36 33/63/33
f 27/67/27 34/68/34 36/66/36 35/65/35
f 34/69/34 29/58/29 30/57/30 36/70/36
f 30/57/30 33/60/33 36/70/36
f 37/10/37 40/71/40 42/72/42 41/73/41
f 40/74/40 44/75/44 45/76/45 42/77/42
f 38/78/38 43/79/43 45/76/45 44/75/44
f 43/79/43 47/80/47 48/81/48 45/76/45
f 39/15/39 46/82/46 48/81/48 47/80/47
f 46/82/46 41/83/41 42/84/42 48/81/48
f 42/84/42 45/85/45 48/81/48
f 49/86/49 52/87/52 54/88/54 53/89/53
f 52/87/52 56/90/56 57/91/57 54/88/54
f 50/92/50 55/93/55 57/91/57 56/90/56
f 55/93/55 59/94/59 60/95/60 57/91/57
f 51/96/51 58/97/58 60/95/60 59/94/59
f 58/98/58 53/89/53 54/88/54 60/99/60
f 54/88/54 57/100/57 60/99/60
f 61/101/61 64/102/64 66/103/66 65/104/65
f 64/105/64 68/106/68 69/107/69 66/108/66
f 62/109/62 67/110/67 69/107/69 68/106/68
f 67/110/67 71/111/71 72/112/72 69/107/69
f 63/7/63 70/113/70 72/112/72 71/111/71
f 70/113/70 65/104/65 66/103/66 72/112/72
f 66/108/66 69/107/69 72/114/72
f 73/115/73 76/116/76 78/117/78 77/118/77
f 76/116/76 80/119/80 81/120/81 78/117/78
f 74/121/74 79/122/79 81/123/81 80/124/80
f 79/122/79 83/125/83 84/126/84 81/123/81
f 75/127/75 82/128/82 84/126/84 83/125/83
f 82/128/82 77/118/77 78/117/78 84/126/84
f 78/117/78 81/120/81 84/129/84
f 85/130/85 88/131/88 90/132/90 89/133/89
f 88/131/88 92/134/92 93/135/93 90/132/90
f 86/6/86 91/136/91 93/135/93 92/134/92
f 91/136/91 95/137/95 96/138/96 93/135/93
f 87/19/87 94/139/94 96/138/96 95/137/95
f 94/139/94 89/140/89 90/141/90 96/138/96
f 90/141/90 93/142/93 96/138/96
f 25/55/25 1/21/1 5/24/5 28/56/28
f 28/56/28 5/24/5 10/37/10 32/59/32
f 32/64/32 10/36/10 3/35/3 26/61/26
f 98/145/98 17/53/17 22/52/22 99/146/99
f 99/146/99 22/52/22 15/14/15 100/13/100
f 14/11/14 37/10/37 41/73/41 19/45/19
f 19/48/19 41/83/41 46/82/46 23/49/23
f 23/49/23 46/82/46 39/15/39 15/14/15
f 101/147/101 27/67/27 35/65/35 102/148/102
f 102/148/102 35/65/35 31/62/31 103/149/103
f 103/149/103 31/62/31 26/61/26 104/16/104
f 113/150/113 25/55/25 29/58/29 114/151/114
f 114/151/114 29/58/29 34/69/34 115/152/115
f 115/153/115 34/68/34 27/67/27 116/154/116
f 117/9/117 85/130/85 89/133/89 118/155/118
f 118/156/118 89/140/89 94/139/94 119/157/119
f 119/157/119 94/139/94 87/19/87 120/18/120
f 105/5/105 75/127/75 83/125/83 106/158/106
f 106/158/106 83/125/83 79/122/79 107/159/107
f 107/159/107 79/122/79 74/121/74 108/20/108
f 49/86/49 73/115/73 77/118/77 52/87/52
f 52/87/52 77/118/77 82/128/82 56/90/56
f 56/90/56 82/128/82 75/127/75 50/92/50
f 85/130/85 61/101/61 65/104/65 88/131/88
f 88/131/88 65/104/65 70/113/70 92/134/92
f 92/134/92 70/113/70 63/7/63 86/6/86
f 110/164/110 59/94/59 55/93/55 111/165/111
f 111/165/111 55/93/55 50/92/50 112/8/112
f 121/166/121 49/86/49 53/89/53 122/167/122
f 122/167/122 53/89/53 58/98/58 123/168/123
f 123/169/123 58/97/58 51/96/51 124/170/124
f 125/12/125 14/11/14 20/47/20 126/171/126
f 126/172/126 20/43/20 16/40/16 127/173/127
f 127/173/127 16/40/16 13/39/13 128/174/128
f 113/150/113 73/115/73 49/86/49 121/166/121
f 71/111/71 111/165/111 112/8/112 63/7/63
f 67/110/67 110/164/110 111/165/111 71/111/71
f 95/137/95 107/159/107 108/20/108 87/19/87
f 91/136/91 106/158/106 107/159/107 95/137/95
f 86/6/86 105/5/105 106/158/106 91/136/91
f 47/80/47 103/149/103 104/16/104 39/15/39
f 43/79/43 102/148/102 103/149/103 47/80/47
f 38/78/38 101/147/101 102/148/102 43/79/43
f 11/32/11 99/146/99 100/13/100 3/35/3
f 7/31/7 98/145/98 99/146/99 11/32/11
f 116/154/116 129/17/129 108/20/108 74/121/74
f 3/35/3 100/13/100 104/16/104 26/61/26
f 75/127/75 105/5/105 112/8/112 50/92/50
f 27/67/27 101/147/101 129/17/129 116/154/116
f 25/55/25 113/150/113 121/166/121 1/21/1
f 68/106/68 127/173/127 128/174/128 62/109/62
f 64/105/64 126/172/126 127/173/127 68/106/68
f 61/101/61 125/12/125 126/171/126 64/102/64
f 8/30/8 123/169/123 124/170/124 2/27/2
f 4/22/4 122/167/122 123/168/123 8/25/8
f 1/21/1 121/166/121 122/167/122 4/22/4
f 44/75/44 119/157/119 120/18/120 38/78/38
f 40/74/40 118/156/118 119/157/119 44/75/44
f 37/10/37 117/9/117 118/155/118 40/71/40
f 80/124/80 115/153/115 116/154/116 74/121/74
f 76/116/76 114/151/114 115/152/115 80/119/80
f 73/115/73 113/150/113 114/151/114 76/116/76
f 101/147/101 38/78/38 120/18/120 129/17/129
f 85/130/85 117/9/117 125/12/125 61/101/61
