# Blender 4.3.0
# www.blender.org
mtllib UltraleapStereoIR170Casing.mtl
o LeapController
v -0.072500 0.005580 0.009300
v 0.072500 0.005580 0.009300
v 0.072500 0.005580 -0.009300
v -0.072500 0.005580 -0.009300
v 0.072500 0.007800 0.009300
v 0.072500 0.007800 -0.009300
v -0.072500 0.007800 -0.009300
v -0.072500 0.007800 0.009300
v -0.059500 0.000100 0.009300
v 0.059500 0.000100 0.009300
v 0.059500 0.000100 -0.009300
v -0.059500 0.000100 -0.009300
v 0.059500 0.007800 0.009300
v 0.059500 0.007800 -0.009300
v -0.059500 0.007800 -0.009300
v -0.059500 0.007800 0.009300
vn -0.0000 -1.0000 -0.0000
vn 1.0000 -0.0000 -0.0000
vn -0.0000 -0.0000 -1.0000
vn -0.0000 1.0000 -0.0000
vn -0.0000 -0.0000 1.0000
vn -1.0000 -0.0000 -0.0000
vt 0.625000 0.500000
vt 0.875000 0.750000
vt 0.625000 0.750000
vt 0.875000 0.500000
vt 0.375000 0.750000
vt 0.625000 1.000000
vt 0.375000 1.000000
vt 0.375000 0.000000
vt 0.625000 0.250000
vt 0.375000 0.250000
vt 0.625000 0.000000
vt 0.125000 0.500000
vt 0.125000 0.750000
vt 0.375000 0.500000
s 1
usemtl Material.001
f 1/1/1 3/2/1 2/3/1
f 1/1/1 4/4/1 3/2/1
f 5/5/2 3/6/2 6/7/2
f 5/5/2 2/3/2 3/6/2
f 6/8/3 4/9/3 7/10/3
f 6/8/3 3/11/3 4/9/3
f 7/12/4 5/5/4 6/13/4
f 7/12/4 8/14/4 5/5/4
f 8/14/5 2/3/5 5/5/5
f 8/14/5 1/1/5 2/3/5
f 7/10/6 1/1/6 8/14/6
f 7/10/6 4/9/6 1/1/6
f 9/1/1 11/2/1 10/3/1
f 9/1/1 12/4/1 11/2/1
f 13/5/2 11/6/2 14/7/2
f 13/5/2 10/3/2 11/6/2
f 14/8/3 12/9/3 15/10/3
f 14/8/3 11/11/3 12/9/3
f 15/12/4 13/5/4 14/13/4
f 15/12/4 16/14/4 13/5/4
f 16/14/5 10/3/5 13/5/5
f 16/14/5 9/1/5 10/3/5
f 15/10/6 9/1/6 16/14/6
f 15/10/6 12/9/6 9/1/6
